<mxfile host="app.diagrams.net" modified="2023-11-22T12:05:09.471Z" agent="Mozilla/5.0 (Windows NT 10.0; Win64; x64) AppleWebKit/537.36 (KHTML, like Gecko) Chrome/119.0.0.0 Safari/537.36" etag="i4_zPYz85FPzagGscckC" version="22.1.3" type="github">
  <diagram name="Halaman-1" id="7L_tiPoQqT-87Dtt8Oah">
    <mxGraphModel dx="1050" dy="603" grid="1" gridSize="10" guides="1" tooltips="1" connect="1" arrows="1" fold="1" page="1" pageScale="1" pageWidth="827" pageHeight="1169" math="0" shadow="0">
      <root>
        <mxCell id="0" />
        <mxCell id="1" parent="0" />
        <mxCell id="S7L3qb6RAmKxS-3aenxL-1" value="" style="ellipse;html=1;shape=startState;fillColor=#000000;strokeColor=#ff0000;" vertex="1" parent="1">
          <mxGeometry x="120" y="90" width="30" height="30" as="geometry" />
        </mxCell>
        <mxCell id="S7L3qb6RAmKxS-3aenxL-2" value="" style="edgeStyle=orthogonalEdgeStyle;html=1;verticalAlign=bottom;endArrow=open;endSize=8;strokeColor=#ff0000;rounded=0;" edge="1" source="S7L3qb6RAmKxS-3aenxL-1" parent="1">
          <mxGeometry relative="1" as="geometry">
            <mxPoint x="135" y="170" as="targetPoint" />
          </mxGeometry>
        </mxCell>
        <mxCell id="S7L3qb6RAmKxS-3aenxL-10" style="edgeStyle=orthogonalEdgeStyle;rounded=0;orthogonalLoop=1;jettySize=auto;html=1;exitX=1;exitY=0.5;exitDx=0;exitDy=0;entryX=0;entryY=0.5;entryDx=0;entryDy=0;" edge="1" parent="1" source="S7L3qb6RAmKxS-3aenxL-3" target="S7L3qb6RAmKxS-3aenxL-4">
          <mxGeometry relative="1" as="geometry" />
        </mxCell>
        <mxCell id="S7L3qb6RAmKxS-3aenxL-3" value="Login" style="rounded=1;whiteSpace=wrap;html=1;" vertex="1" parent="1">
          <mxGeometry x="50" y="170" width="170" height="60" as="geometry" />
        </mxCell>
        <mxCell id="S7L3qb6RAmKxS-3aenxL-11" style="edgeStyle=orthogonalEdgeStyle;rounded=0;orthogonalLoop=1;jettySize=auto;html=1;exitX=0.5;exitY=1;exitDx=0;exitDy=0;entryX=0.5;entryY=0;entryDx=0;entryDy=0;" edge="1" parent="1" source="S7L3qb6RAmKxS-3aenxL-4" target="S7L3qb6RAmKxS-3aenxL-5">
          <mxGeometry relative="1" as="geometry" />
        </mxCell>
        <mxCell id="S7L3qb6RAmKxS-3aenxL-4" value="Menampilkan Halaman Utama" style="rounded=1;whiteSpace=wrap;html=1;" vertex="1" parent="1">
          <mxGeometry x="500" y="170" width="210" height="60" as="geometry" />
        </mxCell>
        <mxCell id="S7L3qb6RAmKxS-3aenxL-15" style="edgeStyle=orthogonalEdgeStyle;rounded=0;orthogonalLoop=1;jettySize=auto;html=1;exitX=1;exitY=0.5;exitDx=0;exitDy=0;" edge="1" parent="1" source="S7L3qb6RAmKxS-3aenxL-5" target="S7L3qb6RAmKxS-3aenxL-7">
          <mxGeometry relative="1" as="geometry" />
        </mxCell>
        <mxCell id="S7L3qb6RAmKxS-3aenxL-5" value="Klik Check In" style="rounded=1;whiteSpace=wrap;html=1;" vertex="1" parent="1">
          <mxGeometry x="50" y="280" width="170" height="60" as="geometry" />
        </mxCell>
        <mxCell id="S7L3qb6RAmKxS-3aenxL-13" style="edgeStyle=orthogonalEdgeStyle;rounded=0;orthogonalLoop=1;jettySize=auto;html=1;exitX=1;exitY=0.5;exitDx=0;exitDy=0;" edge="1" parent="1" source="S7L3qb6RAmKxS-3aenxL-6" target="S7L3qb6RAmKxS-3aenxL-8">
          <mxGeometry relative="1" as="geometry" />
        </mxCell>
        <mxCell id="S7L3qb6RAmKxS-3aenxL-6" value="Isi Form Check In" style="rounded=1;whiteSpace=wrap;html=1;" vertex="1" parent="1">
          <mxGeometry x="50" y="390" width="170" height="60" as="geometry" />
        </mxCell>
        <mxCell id="S7L3qb6RAmKxS-3aenxL-12" style="edgeStyle=orthogonalEdgeStyle;rounded=0;orthogonalLoop=1;jettySize=auto;html=1;entryX=0.5;entryY=0;entryDx=0;entryDy=0;" edge="1" parent="1" source="S7L3qb6RAmKxS-3aenxL-7" target="S7L3qb6RAmKxS-3aenxL-6">
          <mxGeometry relative="1" as="geometry">
            <Array as="points">
              <mxPoint x="605" y="360" />
              <mxPoint x="135" y="360" />
            </Array>
          </mxGeometry>
        </mxCell>
        <mxCell id="S7L3qb6RAmKxS-3aenxL-7" value="Menampilkan Form Check In" style="rounded=1;whiteSpace=wrap;html=1;" vertex="1" parent="1">
          <mxGeometry x="500" y="280" width="210" height="60" as="geometry" />
        </mxCell>
        <mxCell id="S7L3qb6RAmKxS-3aenxL-14" style="edgeStyle=orthogonalEdgeStyle;rounded=0;orthogonalLoop=1;jettySize=auto;html=1;exitX=0.5;exitY=1;exitDx=0;exitDy=0;entryX=0.5;entryY=0;entryDx=0;entryDy=0;" edge="1" parent="1" source="S7L3qb6RAmKxS-3aenxL-8" target="S7L3qb6RAmKxS-3aenxL-9">
          <mxGeometry relative="1" as="geometry" />
        </mxCell>
        <mxCell id="S7L3qb6RAmKxS-3aenxL-8" value="Absensi Berhasil" style="rounded=1;whiteSpace=wrap;html=1;" vertex="1" parent="1">
          <mxGeometry x="500" y="390" width="210" height="60" as="geometry" />
        </mxCell>
        <mxCell id="S7L3qb6RAmKxS-3aenxL-9" value="" style="ellipse;html=1;shape=endState;fillColor=#000000;strokeColor=#ff0000;" vertex="1" parent="1">
          <mxGeometry x="590" y="490" width="30" height="30" as="geometry" />
        </mxCell>
      </root>
    </mxGraphModel>
  </diagram>
</mxfile>
